<?xml version="1.0" encoding="us-ascii" standalone="no"?><svg xmlns="http://www.w3.org/2000/svg" xmlns:xlink="http://www.w3.org/1999/xlink" contentStyleType="text/css" height="940px" preserveAspectRatio="none" style="width:1702px;height:940px;background:#FFFFFF;" version="1.1" viewBox="0 0 1702 940" width="1702px" zoomAndPan="magnify"><defs/><g><!--cluster Internet--><g id="cluster_Internet"><polygon fill="none" points="971,157.5,981,147.5,1113,147.5,1113,242.5,1103,252.5,971,252.5,971,157.5" style="stroke:#181818;stroke-width:1.0;"/><line style="stroke:#181818;stroke-width:1.0;" x1="1103" x2="1113" y1="157.5" y2="147.5"/><line style="stroke:#181818;stroke-width:1.0;" x1="971" x2="1103" y1="157.5" y2="157.5"/><line style="stroke:#181818;stroke-width:1.0;" x1="1103" x2="1103" y1="157.5" y2="252.5"/><text fill="#000000" font-family="sans-serif" font-size="14" font-weight="bold" lengthAdjust="spacing" textLength="56" x="1010" y="175.0332">Internet</text></g><!--cluster VPS--><g id="cluster_VPS"><polygon fill="none" points="16,320.5,26,310.5,1270,310.5,1270,913,1260,923,16,923,16,320.5" style="stroke:#181818;stroke-width:1.0;"/><line style="stroke:#181818;stroke-width:1.0;" x1="1260" x2="1270" y1="320.5" y2="310.5"/><line style="stroke:#181818;stroke-width:1.0;" x1="16" x2="1260" y1="320.5" y2="320.5"/><line style="stroke:#181818;stroke-width:1.0;" x1="1260" x2="1260" y1="320.5" y2="923"/><text fill="#000000" font-family="sans-serif" font-size="14" font-weight="bold" lengthAdjust="spacing" textLength="137" x="570.5" y="338.0332">VPS - Host (Ubuntu)</text></g><!--cluster network--><g id="cluster_network"><polygon fill="none" points="474,377.5,484,367.5,1238,367.5,1238,881,1228,891,474,891,474,377.5" style="stroke:#181818;stroke-width:1.0;"/><line style="stroke:#181818;stroke-width:1.0;" x1="1228" x2="1238" y1="377.5" y2="367.5"/><line style="stroke:#181818;stroke-width:1.0;" x1="474" x2="1228" y1="377.5" y2="377.5"/><line style="stroke:#181818;stroke-width:1.0;" x1="1228" x2="1228" y1="377.5" y2="891"/><text fill="#000000" font-family="sans-serif" font-size="14" font-weight="bold" lengthAdjust="spacing" textLength="151" x="776.5" y="395.0332">Rede Interna (bridge)</text></g><!--cluster externals--><g id="cluster_externals"><polygon fill="none" points="1302,796,1312,786,1685,786,1685,881,1675,891,1302,891,1302,796" style="stroke:#181818;stroke-width:1.0;"/><line style="stroke:#181818;stroke-width:1.0;" x1="1675" x2="1685" y1="796" y2="786"/><line style="stroke:#181818;stroke-width:1.0;" x1="1302" x2="1675" y1="796" y2="796"/><line style="stroke:#181818;stroke-width:1.0;" x1="1675" x2="1675" y1="796" y2="891"/><text fill="#000000" font-family="sans-serif" font-size="14" font-weight="bold" lengthAdjust="spacing" textLength="129" x="1425" y="813.5332">Servi&#231;os Externos</text></g><!--entity dns--><g id="elem_dns"><rect fill="#F1F1F1" height="47.6094" rx="2.5" ry="2.5" style="stroke:#181818;stroke-width:0.5;" width="109" x="987.5" y="188.5"/><rect fill="#F1F1F1" height="10" style="stroke:#181818;stroke-width:0.5;" width="15" x="1076.5" y="193.5"/><rect fill="#F1F1F1" height="2" style="stroke:#181818;stroke-width:0.5;" width="4" x="1074.5" y="195.5"/><rect fill="#F1F1F1" height="2" style="stroke:#181818;stroke-width:0.5;" width="4" x="1074.5" y="199.5"/><text fill="#000000" font-family="sans-serif" font-size="14" lengthAdjust="spacing" textLength="69" x="1002.5" y="223.0332">DNS / CDN</text></g><!--entity docker--><g id="elem_docker"><polygon fill="#F1F1F1" points="240.5,418.5,250.5,408.5,455.5,408.5,455.5,446.1094,445.5,456.1094,240.5,456.1094,240.5,418.5" style="stroke:#181818;stroke-width:0.5;"/><line style="stroke:#181818;stroke-width:0.5;" x1="445.5" x2="455.5" y1="418.5" y2="408.5"/><line style="stroke:#181818;stroke-width:0.5;" x1="240.5" x2="445.5" y1="418.5" y2="418.5"/><line style="stroke:#181818;stroke-width:0.5;" x1="445.5" x2="445.5" y1="418.5" y2="456.1094"/><text fill="#000000" font-family="sans-serif" font-size="14" lengthAdjust="spacing" textLength="175" x="255.5" y="443.0332">Docker / Container Runtime</text></g><!--entity orchestrator--><g id="elem_orchestrator"><polygon fill="#F1F1F1" points="59,418.5,69,408.5,205,408.5,205,446.1094,195,456.1094,59,456.1094,59,418.5" style="stroke:#181818;stroke-width:0.5;"/><line style="stroke:#181818;stroke-width:0.5;" x1="195" x2="205" y1="418.5" y2="408.5"/><line style="stroke:#181818;stroke-width:0.5;" x1="59" x2="195" y1="418.5" y2="418.5"/><line style="stroke:#181818;stroke-width:0.5;" x1="195" x2="195" y1="418.5" y2="456.1094"/><text fill="#000000" font-family="sans-serif" font-size="14" lengthAdjust="spacing" textLength="106" x="74" y="443.0332">Coolify / Dokploy</text></g><!--entity proxy--><g id="elem_proxy"><rect fill="#F1F1F1" height="47.6094" rx="2.5" ry="2.5" style="stroke:#181818;stroke-width:0.5;" width="217" x="1004.5" y="408.5"/><rect fill="#F1F1F1" height="10" style="stroke:#181818;stroke-width:0.5;" width="15" x="1201.5" y="413.5"/><rect fill="#F1F1F1" height="2" style="stroke:#181818;stroke-width:0.5;" width="4" x="1199.5" y="415.5"/><rect fill="#F1F1F1" height="2" style="stroke:#181818;stroke-width:0.5;" width="4" x="1199.5" y="419.5"/><text fill="#000000" font-family="sans-serif" font-size="14" lengthAdjust="spacing" textLength="177" x="1019.5" y="443.0332">reverse-proxy (nginx/traefik)</text></g><!--entity fe--><g id="elem_fe"><rect fill="#F1F1F1" height="47.6094" rx="2.5" ry="2.5" style="stroke:#181818;stroke-width:0.5;" width="182" x="1017" y="548"/><rect fill="#F1F1F1" height="10" style="stroke:#181818;stroke-width:0.5;" width="15" x="1179" y="553"/><rect fill="#F1F1F1" height="2" style="stroke:#181818;stroke-width:0.5;" width="4" x="1177" y="555"/><rect fill="#F1F1F1" height="2" style="stroke:#181818;stroke-width:0.5;" width="4" x="1177" y="559"/><text fill="#000000" font-family="sans-serif" font-size="14" lengthAdjust="spacing" textLength="142" x="1032" y="582.5332">frontend: app (docker)</text></g><!--entity be--><g id="elem_be"><rect fill="#F1F1F1" height="47.6094" rx="2.5" ry="2.5" style="stroke:#181818;stroke-width:0.5;" width="178" x="1036" y="674"/><rect fill="#F1F1F1" height="10" style="stroke:#181818;stroke-width:0.5;" width="15" x="1194" y="679"/><rect fill="#F1F1F1" height="2" style="stroke:#181818;stroke-width:0.5;" width="4" x="1192" y="681"/><rect fill="#F1F1F1" height="2" style="stroke:#181818;stroke-width:0.5;" width="4" x="1192" y="685"/><text fill="#000000" font-family="sans-serif" font-size="14" lengthAdjust="spacing" textLength="138" x="1051" y="708.5332">backend: api (docker)</text></g><!--entity db--><g id="elem_db"><rect fill="#F1F1F1" height="47.6094" rx="2.5" ry="2.5" style="stroke:#181818;stroke-width:0.5;" width="219" x="1002.5" y="827"/><rect fill="#F1F1F1" height="10" style="stroke:#181818;stroke-width:0.5;" width="15" x="1201.5" y="832"/><rect fill="#F1F1F1" height="2" style="stroke:#181818;stroke-width:0.5;" width="4" x="1199.5" y="834"/><rect fill="#F1F1F1" height="2" style="stroke:#181818;stroke-width:0.5;" width="4" x="1199.5" y="838"/><text fill="#000000" font-family="sans-serif" font-size="14" lengthAdjust="spacing" textLength="179" x="1017.5" y="861.5332">postgres: database (docker)</text></g><!--entity pgdata--><g id="elem_pgdata"><rect fill="#F1F1F1" height="40.6094" rx="2.5" ry="2.5" style="stroke:#181818;stroke-width:0.5;" width="219" x="750.5" y="412"/><polygon fill="#F1F1F1" points="952.5,417,952.5,431,964.5,431,964.5,423,958.5,417,952.5,417" style="stroke:#181818;stroke-width:0.5;"/><line style="stroke:#181818;stroke-width:0.5;" x1="958.5" x2="958.5" y1="417" y2="423"/><line style="stroke:#181818;stroke-width:0.5;" x1="964.5" x2="958.5" y1="423" y2="423"/><text fill="#000000" font-family="sans-serif" font-size="14" lengthAdjust="spacing" textLength="189" x="760.5" y="439.5332">Volume: pgdata (host volume)</text></g><!--entity uploads--><g id="elem_uploads"><rect fill="#F1F1F1" height="40.6094" rx="2.5" ry="2.5" style="stroke:#181818;stroke-width:0.5;" width="225" x="490.5" y="412"/><polygon fill="#F1F1F1" points="698.5,417,698.5,431,710.5,431,710.5,423,704.5,417,698.5,417" style="stroke:#181818;stroke-width:0.5;"/><line style="stroke:#181818;stroke-width:0.5;" x1="704.5" x2="704.5" y1="417" y2="423"/><line style="stroke:#181818;stroke-width:0.5;" x1="710.5" x2="704.5" y1="423" y2="423"/><text fill="#000000" font-family="sans-serif" font-size="14" lengthAdjust="spacing" textLength="195" x="500.5" y="439.5332">Volume: uploads (host volume)</text></g><!--entity payment--><g id="elem_payment"><rect fill="#F1F1F1" height="47.6094" rx="2.5" ry="2.5" style="stroke:#181818;stroke-width:0.5;" width="191" x="1318.5" y="827"/><rect fill="#F1F1F1" height="10" style="stroke:#181818;stroke-width:0.5;" width="15" x="1489.5" y="832"/><rect fill="#F1F1F1" height="2" style="stroke:#181818;stroke-width:0.5;" width="4" x="1487.5" y="834"/><rect fill="#F1F1F1" height="2" style="stroke:#181818;stroke-width:0.5;" width="4" x="1487.5" y="838"/><text fill="#000000" font-family="sans-serif" font-size="14" lengthAdjust="spacing" textLength="151" x="1333.5" y="861.5332">Gateway de Pagamento</text></g><!--entity smtp--><g id="elem_smtp"><rect fill="#F1F1F1" height="47.6094" rx="2.5" ry="2.5" style="stroke:#181818;stroke-width:0.5;" width="124" x="1545" y="827"/><rect fill="#F1F1F1" height="10" style="stroke:#181818;stroke-width:0.5;" width="15" x="1649" y="832"/><rect fill="#F1F1F1" height="2" style="stroke:#181818;stroke-width:0.5;" width="4" x="1647" y="834"/><rect fill="#F1F1F1" height="2" style="stroke:#181818;stroke-width:0.5;" width="4" x="1647" y="838"/><text fill="#000000" font-family="sans-serif" font-size="14" lengthAdjust="spacing" textLength="84" x="1560" y="861.5332">SMTP / Email</text></g><!--entity Client--><g id="elem_Client"><ellipse cx="1112" cy="14" fill="#F1F1F1" rx="8" ry="8" style="stroke:#181818;stroke-width:0.5;"/><path d="M1112,22 L1112,49 M1099,30 L1125,30 M1112,49 L1099,64 M1112,49 L1125,64 " fill="none" style="stroke:#181818;stroke-width:0.5;"/><text fill="#000000" font-family="sans-serif" font-size="14" lengthAdjust="spacing" textLength="131" x="1046.5" y="80.0332">Usu&#225;rio (Navegador)</text></g><g id="elem_GMN26"><path d="M1294.5,395 L1294.5,470.4063 L1641.5,470.4063 L1641.5,405 L1631.5,395 L1294.5,395 " fill="#FEFFDD" style="stroke:#181818;stroke-width:0.5;"/><path d="M1631.5,395 L1631.5,405 L1641.5,405 L1631.5,395 " fill="#FEFFDD" style="stroke:#181818;stroke-width:1.0;"/><text fill="#000000" font-family="sans-serif" font-size="13" lengthAdjust="spacing" textLength="296" x="1300.5" y="413.4951">- Firewall: permitir 22 (SSH), 80/443 (HTTP/HTTPS)</text><text fill="#000000" font-family="sans-serif" font-size="13" lengthAdjust="spacing" textLength="298" x="1300.5" y="429.8467">- Postgres acess&#237;vel apenas na rede interna Docker</text><text fill="#000000" font-family="sans-serif" font-size="13" lengthAdjust="spacing" textLength="315" x="1300.5" y="446.1982">- TLS: Let's Encrypt gerenciado pelo proxy (ou Coolify)</text><text fill="#000000" font-family="sans-serif" font-size="13" lengthAdjust="spacing" textLength="326" x="1300.5" y="462.5498">- Rede interna isola backend, frontend e banco de dados</text></g><!--link Client to dns--><g id="link_Client_dns"><path d="M1095.94,83.58 C1082.3,115.94 1065.491,155.7913 1054.061,182.9013 " fill="none" id="Client-to-dns" style="stroke:#181818;stroke-width:1.0;"/><polygon fill="#181818" points="1051.73,188.43,1058.9123,181.6909,1053.6725,183.8228,1051.5407,178.583,1051.73,188.43" style="stroke:#181818;stroke-width:1.0;"/><text fill="#000000" font-family="sans-serif" font-size="13" lengthAdjust="spacing" textLength="80" x="1084" y="127.9951">consulta DNS</text></g><!--link dns to proxy--><g id="link_dns_proxy"><path d="M1028.57,236.52 C1021.88,250.9 1016.14,269.78 1021,286.5 C1034.89,334.31 1065.9588,376.8491 1088.5588,403.8491 " fill="none" id="dns-to-proxy" style="stroke:#181818;stroke-width:1.0;"/><polygon fill="#181818" points="1092.41,408.45,1089.7006,398.9812,1089.2007,404.6159,1083.566,404.116,1092.41,408.45" style="stroke:#181818;stroke-width:1.0;"/><text fill="#000000" font-family="sans-serif" font-size="13" lengthAdjust="spacing" textLength="152" x="1022" y="282.9951">resolve dom&#237;nio -&gt; IP VPS</text></g><!--link Client to proxy--><g id="link_Client_proxy"><path d="M1154.28,83.62 C1161.82,92.63 1168.65,102.77 1173,113.5 C1201.89,184.81 1195.31,211.31 1179,286.5 C1169.09,332.18 1146.5336,375.5634 1130.2836,403.2934 " fill="none" id="Client-to-proxy" style="stroke:#181818;stroke-width:1.0;"/><polygon fill="#181818" points="1127.25,408.47,1135.2514,402.7274,1129.778,404.1561,1128.3492,398.6827,1127.25,408.47" style="stroke:#181818;stroke-width:1.0;"/><text fill="#000000" font-family="sans-serif" font-size="13" lengthAdjust="spacing" textLength="74" x="1193" y="217.9951">HTTPS (443)</text></g><!--link proxy to fe--><g id="link_proxy_fe"><path d="M1112.16,456.51 C1111.24,481.9 1109.9771,516.5039 1109.0571,541.9139 " fill="none" id="proxy-to-fe" style="stroke:#181818;stroke-width:1.0;"/><polygon fill="#181818" points="1108.84,547.91,1113.163,539.0606,1109.0209,542.9133,1105.1683,538.7712,1108.84,547.91" style="stroke:#181818;stroke-width:1.0;"/><text fill="#000000" font-family="sans-serif" font-size="13" lengthAdjust="spacing" textLength="75" x="1111" y="514.4951">HTTP interno</text></g><!--link fe to be--><g id="link_fe_be"><path d="M1111.16,596.03 C1114.19,618.17 1117.9344,645.4957 1120.9844,667.7257 " fill="none" id="fe-to-be" style="stroke:#181818;stroke-width:1.0;"/><polygon fill="#181818" points="1121.8,673.67,1124.5395,664.2098,1121.1204,668.7164,1116.6138,665.2972,1121.8,673.67" style="stroke:#181818;stroke-width:1.0;"/><text fill="#000000" font-family="sans-serif" font-size="13" lengthAdjust="spacing" textLength="117" x="1118" y="640.4951">HTTPS interno (API)</text></g><!--link be to db--><g id="link_be_db"><path d="M1123,722.26 C1120.55,750.72 1116.9464,792.6223 1114.4964,820.9823 " fill="none" id="be-to-db" style="stroke:#181818;stroke-width:1.0;"/><polygon fill="#181818" points="1113.98,826.96,1118.7398,818.3377,1114.4103,821.9786,1110.7695,817.6491,1113.98,826.96" style="stroke:#181818;stroke-width:1.0;"/><text fill="#000000" font-family="sans-serif" font-size="13" lengthAdjust="spacing" textLength="102" x="1121" y="766.4951">JDBC/SSL (5432)</text></g><!--link be to payment--><g id="link_be_payment"><path d="M1172.32,722.01 C1190.98,731.19 1212.57,741.96 1232,752 C1280.3,776.96 1329.9071,803.8187 1366.6571,823.9387 " fill="none" id="be-to-payment" style="stroke:#181818;stroke-width:1.0;"/><polygon fill="#181818" points="1371.92,826.82,1365.9466,818.9894,1367.5343,824.4189,1362.1048,826.0066,1371.92,826.82" style="stroke:#181818;stroke-width:1.0;"/><text fill="#000000" font-family="sans-serif" font-size="13" lengthAdjust="spacing" textLength="74" x="1262" y="766.4951">HTTPS (API)</text></g><!--link be to smtp--><g id="link_be_smtp"><path d="M1214.04,702.91 C1298.54,709.68 1427.11,728.08 1527,778 C1550.73,789.86 1568.6895,806.3027 1583.5995,822.5227 " fill="none" id="be-to-smtp" style="stroke:#181818;stroke-width:1.0;"/><polygon fill="#181818" points="1587.66,826.94,1584.5141,817.6071,1584.2762,823.2589,1578.6244,823.0211,1587.66,826.94" style="stroke:#181818;stroke-width:1.0;"/><text fill="#000000" font-family="sans-serif" font-size="13" lengthAdjust="spacing" textLength="69" x="1508" y="766.4951">SMTP / API</text></g><!--link VPS to GMN26--><g id="link_VPS_GMN26"><path d="M28.3746,310.0648 C28.5863,309.5978 28.8018,309.1336 29.0211,308.6722 C29.4597,307.7495 29.9135,306.8381 30.383,305.9388 C31.3221,304.1403 32.3238,302.3903 33.3917,300.6953 C35.5275,297.3053 37.928,294.1351 40.6205,291.2359 C46.0055,285.4373 52.5588,280.7225 60.5,277.5 C120.22,253.27 1158.56,259.71 1220.5,277.5 C1299.68,300.25 1378.07,356.57 1424.76,394.68 " fill="none" id="VPS-GMN26" style="stroke:#181818;stroke-width:1.0;stroke-dasharray:7.0,7.0;"/></g><!--SRC=[TLHDJzj04BtxLunomP68WWALgXmgjGajL40Z77gfUXZROxEAlMljhaEYYXzJzS29Otz1_bXdrkQpxGNXVU_jphnv4xTIka6BDMYJqpdQKccO74IOUMDXSENQtK-h3CGNkAOISsE70q07iqgHzb4aAXYSQazMan_0ZmZWs_mYWJ7CvXVVXPfh5zq-CByk4XZ1YN4UugkqrRxjxfDpqNQikSbMPEKEepqgpVzVCbVL5CXvWAD7-ioOIXLRvi_DggdCDh2CpQx9UOlSoHFtalXlLoz2d5gLbzILmFNV6BiAPG1afcwCvXvXO6bDrj6eiMQpXLYpHPintqk5MdNIWBoM5PQB9vrF0Pi6ugxeZb_GQtAAZ7PSzPAR_iLjsBtIafj2ZXvJTFHIaQT1WTQhWkV8ffkghMaAJIa2YA_5_dKuxEiFm7zKBJkAkVk7h4TOT_iquOJiMktkZ8FZZRXiNE1I-C3ATH7vX9vkS0kiM629DJTcGbeQtCg7S9BpvO9dUboZgWBcQj_8GtkI2zhiVfEBkY32QFHEWWPJDagxjk8sEOMH70dKZMuAx9gfriG9gdVtcdFDsEb2qlVyeWVsoNB9iOoFZWw7KNScQ44z12h4o4Hy8a1AZveUWVZzudGOfHsUfun_dd-OZPFa3E8tHuUJHwnl- -dHvqBfcv7U3qR4WY-fOwTnToSsY8-EojQYtjqXaBXGAFbc_9VXqNW2gyfh3wO8xGAluKTbUGXLnSaWMoklB4mc42V9oN0VtXwCkN68fPvnA6eOH8i-VO0PERUxNrF5eIKj6uHiC5UY-lNgrZYebcV95Cx8xt4iT6QtZOUIBEbCyMyAFr-PtlNOjD3lS_VUvVCR5OyFeL-MVNXOCMuuHPqPiI7d2rqaXz9qz0S0]--></g></svg>