<?xml version="1.0" encoding="us-ascii" standalone="no"?><svg xmlns="http://www.w3.org/2000/svg" xmlns:xlink="http://www.w3.org/1999/xlink" contentStyleType="text/css" height="857px" preserveAspectRatio="none" style="width:1246px;height:857px;background:#FFFFFF;" version="1.1" viewBox="0 0 1246 857" width="1246px" zoomAndPan="magnify"><defs/><g><!--cluster C?digo & Versionamento--><g id="cluster_C&#243;digo &amp; Versionamento"><path d="M301,6 L476,6 A3.75,3.75 0 0 1 478.5,8.5 L485.5,29.6094 L486,29.6094 A2.5,2.5 0 0 1 488.5,32.1094 L488.5,110.5 A2.5,2.5 0 0 1 486,113 L301,113 A2.5,2.5 0 0 1 298.5,110.5 L298.5,8.5 A2.5,2.5 0 0 1 301,6 " fill="none" style="stroke:#000000;stroke-width:1.5;"/><line style="stroke:#000000;stroke-width:1.5;" x1="298.5" x2="485.5" y1="29.6094" y2="29.6094"/><text fill="#000000" font-family="sans-serif" font-size="14" font-weight="bold" lengthAdjust="spacing" textLength="174" x="302.5" y="22.5332">C&#243;digo &amp; Versionamento</text></g><!--cluster CI/CD--><g id="cluster_CI/CD"><path d="M324,163 L363,163 A3.75,3.75 0 0 1 365.5,165.5 L372.5,186.6094 L1237,186.6094 A2.5,2.5 0 0 1 1239.5,189.1094 L1239.5,267.5 A2.5,2.5 0 0 1 1237,270 L324,270 A2.5,2.5 0 0 1 321.5,267.5 L321.5,165.5 A2.5,2.5 0 0 1 324,163 " fill="none" style="stroke:#000000;stroke-width:1.5;"/><line style="stroke:#000000;stroke-width:1.5;" x1="321.5" x2="372.5" y1="186.6094" y2="186.6094"/><text fill="#000000" font-family="sans-serif" font-size="14" font-weight="bold" lengthAdjust="spacing" textLength="38" x="325.5" y="179.5332">CI/CD</text></g><!--cluster Entrega de Artefatos--><g id="cluster_Entrega de Artefatos"><path d="M492,328 L638,328 A3.75,3.75 0 0 1 640.5,330.5 L647.5,351.6094 L717,351.6094 A2.5,2.5 0 0 1 719.5,354.1094 L719.5,415.5 A2.5,2.5 0 0 1 717,418 L492,418 A2.5,2.5 0 0 1 489.5,415.5 L489.5,330.5 A2.5,2.5 0 0 1 492,328 " fill="none" style="stroke:#000000;stroke-width:1.5;"/><line style="stroke:#000000;stroke-width:1.5;" x1="489.5" x2="647.5" y1="351.6094" y2="351.6094"/><text fill="#000000" font-family="sans-serif" font-size="14" font-weight="bold" lengthAdjust="spacing" textLength="145" x="493.5" y="344.5332">Entrega de Artefatos</text></g><!--cluster Infra & Observabilidade--><g id="cluster_Infra &amp; Observabilidade"><path d="M586,468 L753,468 A3.75,3.75 0 0 1 755.5,470.5 L762.5,491.6094 L889,491.6094 A2.5,2.5 0 0 1 891.5,494.1094 L891.5,699 A2.5,2.5 0 0 1 889,701.5 L586,701.5 A2.5,2.5 0 0 1 583.5,699 L583.5,470.5 A2.5,2.5 0 0 1 586,468 " fill="none" style="stroke:#000000;stroke-width:1.5;"/><line style="stroke:#000000;stroke-width:1.5;" x1="583.5" x2="762.5" y1="491.6094" y2="491.6094"/><text fill="#000000" font-family="sans-serif" font-size="14" font-weight="bold" lengthAdjust="spacing" textLength="166" x="587.5" y="484.5332">Infra &amp; Observabilidade</text></g><!--entity Git--><g id="elem_Git"><rect fill="#FFFFFF" height="55.2188" rx="7.5" ry="7.5" style="stroke:#000000;stroke-width:0.5;" width="119" x="324" y="42"/><text fill="#000000" font-family="sans-serif" font-size="14" lengthAdjust="spacing" textLength="94" x="334" y="66.5332">Reposit&#243;rio Git</text><text fill="#000000" font-family="sans-serif" font-size="14" lengthAdjust="spacing" textLength="99" x="334" y="84.1426">(GitHub/GitLab)</text></g><!--entity CI--><g id="elem_CI"><rect fill="#FFFFFF" height="55.2188" rx="7.5" ry="7.5" style="stroke:#000000;stroke-width:0.5;" width="194" x="337.5" y="199"/><text fill="#000000" font-family="sans-serif" font-size="14" lengthAdjust="spacing" textLength="64" x="347.5" y="223.5332">CI Runner</text><text fill="#000000" font-family="sans-serif" font-size="14" lengthAdjust="spacing" textLength="174" x="347.5" y="241.1426">(GitHub Actions / GitLab CI)</text></g><!--entity Registry--><g id="elem_Registry"><rect fill="#FFFFFF" height="37.6094" rx="7.5" ry="7.5" style="stroke:#000000;stroke-width:0.5;" width="197" x="506" y="364"/><text fill="#000000" font-family="sans-serif" font-size="14" lengthAdjust="spacing" textLength="177" x="516" y="388.5332">Artifactory / Docker Registry</text></g><!--entity Orchestrator--><g id="elem_Orchestrator"><rect fill="#FFFFFF" height="55.2188" rx="7.5" ry="7.5" style="stroke:#000000;stroke-width:0.5;" width="144" x="599.5" y="504"/><text fill="#000000" font-family="sans-serif" font-size="14" lengthAdjust="spacing" textLength="124" x="609.5" y="528.5332">VPS / Orquestrador</text><text fill="#000000" font-family="sans-serif" font-size="14" lengthAdjust="spacing" textLength="108" x="609.5" y="546.1426">(Coolify/Dokploy)</text></g><!--entity Monitoring--><g id="elem_Monitoring"><rect fill="#FFFFFF" height="37.6094" rx="7.5" ry="7.5" style="stroke:#000000;stroke-width:0.5;" width="162" x="602.5" y="647.5"/><text fill="#000000" font-family="sans-serif" font-size="14" lengthAdjust="spacing" textLength="142" x="612.5" y="672.0332">Monitoramento &amp; Logs</text></g><!--entity Desenvolvedor--><g id="elem_Desenvolvedor"><ellipse cx="313.5" cy="782.5" fill="#F1F1F1" rx="8" ry="8" style="stroke:#181818;stroke-width:0.5;"/><path d="M313.5,790.5 L313.5,817.5 M300.5,798.5 L326.5,798.5 M313.5,817.5 L300.5,832.5 M313.5,817.5 L326.5,832.5 " fill="none" style="stroke:#181818;stroke-width:0.5;"/><text fill="#000000" font-family="sans-serif" font-size="14" lengthAdjust="spacing" textLength="95" x="266" y="848.5332">Desenvolvedor</text></g><g id="elem_GMN24"><path d="M6,189 L6,264.4063 A0,0 0 0 0 6,264.4063 L231,264.4063 A0,0 0 0 0 231,264.4063 L231,230.5 L337.19,226.5 L231,222.5 L231,199 L221,189 L6,189 A0,0 0 0 0 6,189 " fill="#FEFFDD" style="stroke:#181818;stroke-width:0.5;"/><path d="M221,189 L221,199 L231,199 L221,189 " fill="#FEFFDD" style="stroke:#181818;stroke-width:0.5;"/><text fill="#000000" font-family="sans-serif" font-size="13" lengthAdjust="spacing" textLength="204" x="12" y="207.4951">- Branch strategy: feature/* -&gt; main</text><text fill="#000000" font-family="sans-serif" font-size="13" lengthAdjust="spacing" textLength="178" x="12" y="223.8467">- PR/MR -&gt; pipeline obrigat&#243;ria</text><text fill="#000000" font-family="sans-serif" font-size="13" lengthAdjust="spacing" textLength="143" x="12" y="240.1982">- Protected branch: main</text><text fill="#000000" font-family="sans-serif" font-size="13" lengthAdjust="spacing" textLength="204" x="12" y="256.5498">- Environments: staging, production</text></g><g id="elem_GMN27"><path d="M337.5,637 L337.5,696.0547 A0,0 0 0 0 337.5,696.0547 L567.5,696.0547 A0,0 0 0 0 567.5,696.0547 L567.5,647 L557.5,637 L503.63,637 L627.71,559.09 L495.63,637 L337.5,637 A0,0 0 0 0 337.5,637 " fill="#FEFFDD" style="stroke:#181818;stroke-width:0.5;"/><path d="M557.5,637 L557.5,647 L567.5,647 L557.5,637 " fill="#FEFFDD" style="stroke:#181818;stroke-width:0.5;"/><text fill="#000000" font-family="sans-serif" font-size="13" lengthAdjust="spacing" textLength="181" x="343.5" y="655.4951">- Rollback: usar tags anteriores</text><text fill="#000000" font-family="sans-serif" font-size="13" lengthAdjust="spacing" textLength="166" x="343.5" y="671.8467">- Deploy azul/verde ou rolling</text><text fill="#000000" font-family="sans-serif" font-size="13" lengthAdjust="spacing" textLength="209" x="343.5" y="688.1982">- Segredos no Orchestrator ou Vault</text></g><!--link Desenvolvedor to Git--><g id="link_Desenvolvedor_Git"><path d="M301.54,773.78 C293.55,744.89 284.5,704.09 284.5,667.5 C284.5,225.5 284.5,225.5 284.5,225.5 C284.5,173.93 319.6178,129.9427 348.7078,101.3927 " fill="none" id="Desenvolvedor-to-Git" style="stroke:#00008B;stroke-width:1.0;"/><polygon fill="#00008B" points="352.99,97.19,343.7649,100.6393,349.4215,100.6923,349.3685,106.3489,352.99,97.19" style="stroke:#00008B;stroke-width:1.0;"/><text fill="#000000" font-family="sans-serif" font-size="13" lengthAdjust="spacing" textLength="114" x="285.5" y="448.4951">push / pull requests</text></g><!--link Git to CI--><g id="link_Git_CI"><path d="M392.27,97.15 C401.64,125.62 414.5243,164.8007 423.8843,193.2407 " fill="none" id="Git-to-CI" style="stroke:#00008B;stroke-width:1.0;"/><polygon fill="#00008B" points="425.76,198.94,426.746,189.1406,424.1969,194.1906,419.1469,191.6416,425.76,198.94" style="stroke:#00008B;stroke-width:1.0;"/><text fill="#000000" font-family="sans-serif" font-size="13" lengthAdjust="spacing" textLength="139" x="407.5" y="143.4951">webhook (push / merge)</text></g><!--link CI to CI--><g id="link_CI_CI"><path d="M531.78,223.06 C551.98,223.42 566.5,224.57 566.5,226.5 C566.5,228.43 557.979,229.4731 537.779,229.8331 " fill="none" id="CI-to-CI" style="stroke:#00008B;stroke-width:1.0;"/><polygon fill="#00008B" points="531.78,229.94,540.8498,233.779,536.7792,229.8509,540.7073,225.7803,531.78,229.94" style="stroke:#00008B;stroke-width:1.0;"/><text fill="#000000" font-family="sans-serif" font-size="13" lengthAdjust="spacing" textLength="215" x="572.5" y="231.9951">executar testes unit&#225;rios / integra&#231;&#227;o</text></g><!--link CI to CI--><g id="link_CI_CI"><path d="M531.55,220.64 C640.19,217.79 793.5,219.75 793.5,226.5 C793.5,233.25 646.1879,235.3673 537.5479,232.5173 " fill="none" id="CI-to-CI-1" style="stroke:#00008B;stroke-width:1.0;"/><polygon fill="#00008B" points="531.55,232.36,540.442,236.5946,536.5483,232.4911,540.6518,228.5974,531.55,232.36" style="stroke:#00008B;stroke-width:1.0;"/><text fill="#000000" font-family="sans-serif" font-size="13" lengthAdjust="spacing" textLength="129" x="799.5" y="231.9951">build backend (Maven)</text></g><!--link CI to CI--><g id="link_CI_CI"><path d="M531.77,218.83 C680.88,213.03 934.5,215.59 934.5,226.5 C934.5,237.41 686.8755,240.2032 537.7655,234.4032 " fill="none" id="CI-to-CI-2" style="stroke:#00008B;stroke-width:1.0;"/><polygon fill="#00008B" points="531.77,234.17,540.6077,238.5168,536.7662,234.3643,540.9187,230.5228,531.77,234.17" style="stroke:#00008B;stroke-width:1.0;"/><text fill="#000000" font-family="sans-serif" font-size="13" lengthAdjust="spacing" textLength="114" x="940.5" y="231.9951">build frontend (npm)</text></g><!--link CI to CI--><g id="link_CI_CI"><path d="M531.73,217.29 C712.72,208.28 1060.5,211.35 1060.5,226.5 C1060.5,241.65 718.7126,245.0183 537.7226,236.0083 " fill="none" id="CI-to-CI-3" style="stroke:#00008B;stroke-width:1.0;"/><polygon fill="#00008B" points="531.73,235.71,540.52,240.1525,536.7238,235.9586,540.9177,232.1624,531.73,235.71" style="stroke:#00008B;stroke-width:1.0;"/><text fill="#000000" font-family="sans-serif" font-size="13" lengthAdjust="spacing" textLength="114" x="1066.5" y="231.9951">lint / security scans</text></g><!--link CI to Registry--><g id="link_CI_Registry"><path d="M508.38,254.12 C528.82,264.18 549.7,277.35 565.5,294 C584.36,313.88 593.4876,338.6197 598.7476,357.9897 " fill="none" id="CI-to-Registry" style="stroke:#00008B;stroke-width:1.0;"/><polygon fill="#00008B" points="600.32,363.78,601.8216,354.0463,599.0097,358.9547,594.1012,356.1428,600.32,363.78" style="stroke:#00008B;stroke-width:1.0;"/><text fill="#000000" font-family="sans-serif" font-size="13" lengthAdjust="spacing" textLength="124" x="578.5" y="308.4951">push imagens docker</text></g><!--link CI to Registry--><g id="link_CI_Registry"><path d="M424.13,254.1 C419,271.96 416.08,295.2 427.5,312 C445.61,338.64 469.9268,353.2261 500.1168,363.4461 " fill="none" id="CI-to-Registry-1" style="stroke:#00008B;stroke-width:1.0;"/><polygon fill="#00008B" points="505.8,365.37,498.5578,358.6954,501.064,363.7668,495.9926,366.273,505.8,365.37" style="stroke:#00008B;stroke-width:1.0;"/><text fill="#000000" font-family="sans-serif" font-size="13" lengthAdjust="spacing" textLength="128" x="428.5" y="308.4951">tag sem&#226;ntica (v1.2.3)</text></g><!--link Registry to Orchestrator--><g id="link_Registry_Orchestrator"><path d="M612.85,402.26 C624.53,427.8 643.3352,468.9033 656.7952,498.3433 " fill="none" id="Registry-to-Orchestrator" style="stroke:#00008B;stroke-width:1.0;"/><polygon fill="#00008B" points="659.29,503.8,659.1856,493.9517,657.211,499.2527,651.91,497.2781,659.29,503.8" style="stroke:#00008B;stroke-width:1.0;"/><text fill="#000000" font-family="sans-serif" font-size="13" lengthAdjust="spacing" textLength="73" x="634.5" y="448.4951">pull imagens</text></g><!--link Orchestrator to Orchestrator--><g id="link_Orchestrator_Orchestrator"><path d="M743.51,519.2 C763.34,519.79 778.5,523.89 778.5,531.5 C778.5,539.11 769.3373,543.0316 749.5073,543.6216 " fill="none" id="Orchestrator-to-Orchestrator" style="stroke:#00008B;stroke-width:1.0;"/><polygon fill="#00008B" points="743.51,543.8,752.625,547.5306,748.5078,543.6513,752.3871,539.5341,743.51,543.8" style="stroke:#00008B;stroke-width:1.0;"/><text fill="#000000" font-family="sans-serif" font-size="13" lengthAdjust="spacing" textLength="102" x="784.5" y="536.9951">deploy containers</text></g><!--link Orchestrator to Monitoring--><g id="link_Orchestrator_Monitoring"><path d="M673.9,559.09 C676.27,585.32 679.282,618.7242 681.332,641.4942 " fill="none" id="Orchestrator-to-Monitoring" style="stroke:#00008B;stroke-width:1.0;"/><polygon fill="#00008B" points="681.87,647.47,685.0469,638.1476,681.4217,642.4901,677.0791,638.8649,681.87,647.47" style="stroke:#00008B;stroke-width:1.0;"/><text fill="#000000" font-family="sans-serif" font-size="13" lengthAdjust="spacing" textLength="123" x="678.5" y="603.4951">enviar m&#233;tricas / logs</text></g><!--link Monitoring to Desenvolvedor--><g id="link_Monitoring_Desenvolvedor"><path d="M642.18,685.69 C624.76,693.23 604.22,701.97 585.5,709.5 C507.55,740.87 421.5767,772.734 367.0467,792.624 " fill="none" id="Monitoring-to-Desenvolvedor" style="stroke:#00008B;stroke-width:1.0;"/><polygon fill="#00008B" points="361.41,794.68,371.2358,795.3538,366.1073,792.9667,368.4944,787.8381,361.41,794.68" style="stroke:#00008B;stroke-width:1.0;"/><text fill="#000000" font-family="sans-serif" font-size="13" lengthAdjust="spacing" textLength="118" x="541.5" y="740.4951">alertas / dashboards</text></g><!--SRC=[RLJ1RXCn4BtlLunwW1RHHYtYaWDIcnI8rD8gbSg5o-pkP6F5wrd6Tjg0-1ZWW3Zt4_9ZZ7VRf4jxIPJncpVFxutZ5yOrA5W35i4iJLYD3TRioYlpZU3mAFCRmB48tupOii0OPN5Y8pqw5Ie2kieIVCy0Jh1OLCBHbLt3vxa9bEei9KbNEx4AqjgqWuaZWSEtsOyiKobf27boIxPBAbcoh54qLWGxe_LTQIg65t1DuWqxhCa5tca7RsNiJAbXRyBwJWp31nE-k5tz_1ZpWNwTORwt0-ZJGHgvPPyCHkCdNAC9JADJXHiIE5Q_s7aOG4S7eqd7E9hq24zT4AeGIb870yqmi7_2hoTcrbvxfOHZBXPgnfGguuEiMjQ77ptkYPi9gX4NkITPOcwiAR6a9_JNbrTAUo5V8oa7gfzwZn6pDRFLOCoBnlAg4tyXnRp5g9G-npaxeyNER9rvnfLlM-uFZAkIjfVmtiPRXaOBXMdGPhqSON__NJ8CXj14FrTLJRHMvxJIV9QE4aGD7y8DvNFc1UpUGskIYlQoJ0yt6Bgb8WOK2DfF7gAAMV_Ko5ConWMg1DT_rh-vrvL7Oql8rKTo9UoUuvBStZE8cR1I98XhwZx0AhcEy3fUzDc0Bz3vZRQ7k1xkQMeDJBUbRADz1XMmKgvw_Si5Ko3iBWyFZWxUw6KtcDJmE9wMMhsxfyvwPy-0IqenGw4tGgEh_4p7Dihah5iQzRLU_msYafAVLZFF7e5IJp_U8Q0b2IswH3_F6QNqQIq-iLOpnu70qYm0pz9B0TY74q5NpA4LGjLg23F248K6hq3vQnNRmYwdW_DfgZIc8NMVW7Cn5ROl73k8A7qHIADjEOVRxbEzZOQPjjSFTHPMUe7NkgPSnlObPodc92_hHEOS0jT9vdzlOb__iQnDkpE4wDFcOUK1TKzqwuHy2nbtPkEtQ0TBqZyzu0YYVUcP9C2LBgOwvdLaFoZ5NMEqOQld7m00]--></g></svg>