<?xml version="1.0" encoding="us-ascii" standalone="no"?><svg xmlns="http://www.w3.org/2000/svg" xmlns:xlink="http://www.w3.org/1999/xlink" contentStyleType="text/css" height="1053px" preserveAspectRatio="none" style="width:1702px;height:1053px;background:#FFFFFF;" version="1.1" viewBox="0 0 1702 1053" width="1702px" zoomAndPan="magnify"><defs/><g><!--cluster Aplica??o (Sistema de Doa??es)--><g id="cluster_Aplica&#231;&#227;o (Sistema de Doa&#231;&#245;es)"><rect fill="none" height="1040" rx="2.5" ry="2.5" style="stroke:#181818;stroke-width:1.0;" width="1689" x="7" y="7"/><text fill="#000000" font-family="sans-serif" font-size="14" font-weight="bold" lengthAdjust="spacing" textLength="223" x="740" y="23.5332">Aplica&#231;&#227;o (Sistema de Doa&#231;&#245;es)</text></g><!--cluster backend--><g id="cluster_backend"><rect fill="none" height="553" rx="2.5" ry="2.5" style="stroke:#181818;stroke-width:1.0;" width="295" x="31" y="470"/><text fill="#000000" font-family="sans-serif" font-size="14" font-weight="bold" lengthAdjust="spacing" textLength="158" x="99.5" y="486.5332">Backend (Spring Boot)</text></g><!--cluster frontend--><g id="cluster_frontend"><rect fill="none" height="369" rx="2.5" ry="2.5" style="stroke:#181818;stroke-width:1.0;" width="307" x="53" y="51"/><text fill="#000000" font-family="sans-serif" font-size="14" font-weight="bold" lengthAdjust="spacing" textLength="122" x="145.5" y="67.5332">Frontend (Vue.js)</text></g><!--cluster infra--><g id="cluster_infra"><rect fill="none" height="117" rx="2.5" ry="2.5" style="stroke:#181818;stroke-width:1.0;" width="601" x="350" y="778"/><text fill="#000000" font-family="sans-serif" font-size="14" font-weight="bold" lengthAdjust="spacing" textLength="131" x="585" y="794.5332">Infra / Persist&#234;ncia</text></g><!--cluster external--><g id="cluster_external"><rect fill="none" height="117" rx="2.5" ry="2.5" style="stroke:#181818;stroke-width:1.0;" width="697" x="975" y="778"/><text fill="#000000" font-family="sans-serif" font-size="14" font-weight="bold" lengthAdjust="spacing" textLength="150" x="1248.5" y="794.5332">Integra&#231;&#245;es Externas</text></g><!--entity Controller--><g id="elem_Controller"><rect fill="#F1F1F1" height="65.2188" rx="2.5" ry="2.5" style="stroke:#181818;stroke-width:0.5;" width="102" x="80" y="506"/><rect fill="#F1F1F1" height="10" style="stroke:#181818;stroke-width:0.5;" width="15" x="162" y="511"/><rect fill="#F1F1F1" height="2" style="stroke:#181818;stroke-width:0.5;" width="4" x="160" y="513"/><rect fill="#F1F1F1" height="2" style="stroke:#181818;stroke-width:0.5;" width="4" x="160" y="517"/><text fill="#000000" font-family="sans-serif" font-size="14" font-style="italic" lengthAdjust="spacing" textLength="47" x="102.5" y="540.5332">&#171;layer&#187;</text><text fill="#000000" font-family="sans-serif" font-size="14" lengthAdjust="spacing" textLength="62" x="95" y="558.1426">Controller</text></g><!--entity Service--><g id="elem_Service"><rect fill="#F1F1F1" height="65.2188" rx="2.5" ry="2.5" style="stroke:#181818;stroke-width:0.5;" width="87" x="47.5" y="649"/><rect fill="#F1F1F1" height="10" style="stroke:#181818;stroke-width:0.5;" width="15" x="114.5" y="654"/><rect fill="#F1F1F1" height="2" style="stroke:#181818;stroke-width:0.5;" width="4" x="112.5" y="656"/><rect fill="#F1F1F1" height="2" style="stroke:#181818;stroke-width:0.5;" width="4" x="112.5" y="660"/><text fill="#000000" font-family="sans-serif" font-size="14" font-style="italic" lengthAdjust="spacing" textLength="47" x="62.5" y="683.5332">&#171;layer&#187;</text><text fill="#000000" font-family="sans-serif" font-size="14" lengthAdjust="spacing" textLength="47" x="62.5" y="701.1426">Service</text></g><!--entity Repository--><g id="elem_Repository"><rect fill="#F1F1F1" height="65.2188" rx="2.5" ry="2.5" style="stroke:#181818;stroke-width:0.5;" width="108" x="55" y="814"/><rect fill="#F1F1F1" height="10" style="stroke:#181818;stroke-width:0.5;" width="15" x="143" y="819"/><rect fill="#F1F1F1" height="2" style="stroke:#181818;stroke-width:0.5;" width="4" x="141" y="821"/><rect fill="#F1F1F1" height="2" style="stroke:#181818;stroke-width:0.5;" width="4" x="141" y="825"/><text fill="#000000" font-family="sans-serif" font-size="14" font-style="italic" lengthAdjust="spacing" textLength="47" x="80.5" y="848.5332">&#171;layer&#187;</text><text fill="#000000" font-family="sans-serif" font-size="14" lengthAdjust="spacing" textLength="68" x="70" y="866.1426">Repository</text></g><!--entity Domain--><g id="elem_Domain"><rect fill="#F1F1F1" height="65.2188" rx="2.5" ry="2.5" style="stroke:#181818;stroke-width:0.5;" width="142" x="47" y="942"/><rect fill="#F1F1F1" height="10" style="stroke:#181818;stroke-width:0.5;" width="15" x="169" y="947"/><rect fill="#F1F1F1" height="2" style="stroke:#181818;stroke-width:0.5;" width="4" x="167" y="949"/><rect fill="#F1F1F1" height="2" style="stroke:#181818;stroke-width:0.5;" width="4" x="167" y="953"/><text fill="#000000" font-family="sans-serif" font-size="14" font-style="italic" lengthAdjust="spacing" textLength="47" x="89.5" y="976.5332">&#171;layer&#187;</text><text fill="#000000" font-family="sans-serif" font-size="14" lengthAdjust="spacing" textLength="102" x="62" y="994.1426">Domain_Entities</text></g><!--entity Config--><g id="elem_Config"><rect fill="#F1F1F1" height="65.2188" rx="2.5" ry="2.5" style="stroke:#181818;stroke-width:0.5;" width="140" x="170" y="649"/><rect fill="#F1F1F1" height="10" style="stroke:#181818;stroke-width:0.5;" width="15" x="290" y="654"/><rect fill="#F1F1F1" height="2" style="stroke:#181818;stroke-width:0.5;" width="4" x="288" y="656"/><rect fill="#F1F1F1" height="2" style="stroke:#181818;stroke-width:0.5;" width="4" x="288" y="660"/><text fill="#000000" font-family="sans-serif" font-size="14" font-style="italic" lengthAdjust="spacing" textLength="47" x="211.5" y="683.5332">&#171;layer&#187;</text><text fill="#000000" font-family="sans-serif" font-size="14" lengthAdjust="spacing" textLength="100" x="185" y="701.1426">Config_Security</text></g><!--entity Views--><g id="elem_Views"><rect fill="#F1F1F1" height="65.2188" rx="2.5" ry="2.5" style="stroke:#181818;stroke-width:0.5;" width="87" x="227.5" y="87"/><rect fill="#F1F1F1" height="10" style="stroke:#181818;stroke-width:0.5;" width="15" x="294.5" y="92"/><rect fill="#F1F1F1" height="2" style="stroke:#181818;stroke-width:0.5;" width="4" x="292.5" y="94"/><rect fill="#F1F1F1" height="2" style="stroke:#181818;stroke-width:0.5;" width="4" x="292.5" y="98"/><text fill="#000000" font-family="sans-serif" font-size="14" font-style="italic" lengthAdjust="spacing" textLength="47" x="242.5" y="121.5332">&#171;layer&#187;</text><text fill="#000000" font-family="sans-serif" font-size="14" lengthAdjust="spacing" textLength="36" x="248" y="139.1426">Views</text></g><!--entity Components--><g id="elem_Components"><rect fill="#F1F1F1" height="65.2188" rx="2.5" ry="2.5" style="stroke:#181818;stroke-width:0.5;" width="120" x="69" y="213"/><rect fill="#F1F1F1" height="10" style="stroke:#181818;stroke-width:0.5;" width="15" x="169" y="218"/><rect fill="#F1F1F1" height="2" style="stroke:#181818;stroke-width:0.5;" width="4" x="167" y="220"/><rect fill="#F1F1F1" height="2" style="stroke:#181818;stroke-width:0.5;" width="4" x="167" y="224"/><text fill="#000000" font-family="sans-serif" font-size="14" font-style="italic" lengthAdjust="spacing" textLength="47" x="100.5" y="247.5332">&#171;layer&#187;</text><text fill="#000000" font-family="sans-serif" font-size="14" lengthAdjust="spacing" textLength="80" x="84" y="265.1426">Components</text></g><!--entity Stores--><g id="elem_Stores"><rect fill="#F1F1F1" height="65.2188" rx="2.5" ry="2.5" style="stroke:#181818;stroke-width:0.5;" width="120" x="224" y="213"/><rect fill="#F1F1F1" height="10" style="stroke:#181818;stroke-width:0.5;" width="15" x="324" y="218"/><rect fill="#F1F1F1" height="2" style="stroke:#181818;stroke-width:0.5;" width="4" x="322" y="220"/><rect fill="#F1F1F1" height="2" style="stroke:#181818;stroke-width:0.5;" width="4" x="322" y="224"/><text fill="#000000" font-family="sans-serif" font-size="14" font-style="italic" lengthAdjust="spacing" textLength="47" x="255.5" y="247.5332">&#171;layer&#187;</text><text fill="#000000" font-family="sans-serif" font-size="14" lengthAdjust="spacing" textLength="80" x="239" y="265.1426">Stores_Pinia</text></g><!--entity APIS--><g id="elem_APIS"><rect fill="#F1F1F1" height="65.2188" rx="2.5" ry="2.5" style="stroke:#181818;stroke-width:0.5;" width="123" x="69.5" y="339"/><rect fill="#F1F1F1" height="10" style="stroke:#181818;stroke-width:0.5;" width="15" x="172.5" y="344"/><rect fill="#F1F1F1" height="2" style="stroke:#181818;stroke-width:0.5;" width="4" x="170.5" y="346"/><rect fill="#F1F1F1" height="2" style="stroke:#181818;stroke-width:0.5;" width="4" x="170.5" y="350"/><text fill="#000000" font-family="sans-serif" font-size="14" font-style="italic" lengthAdjust="spacing" textLength="47" x="102.5" y="373.5332">&#171;layer&#187;</text><text fill="#000000" font-family="sans-serif" font-size="14" lengthAdjust="spacing" textLength="83" x="84.5" y="391.1426">API_Services</text></g><!--entity Assets--><g id="elem_Assets"><rect fill="#F1F1F1" height="65.2188" rx="2.5" ry="2.5" style="stroke:#181818;stroke-width:0.5;" width="87" x="93.5" y="87"/><rect fill="#F1F1F1" height="10" style="stroke:#181818;stroke-width:0.5;" width="15" x="160.5" y="92"/><rect fill="#F1F1F1" height="2" style="stroke:#181818;stroke-width:0.5;" width="4" x="158.5" y="94"/><rect fill="#F1F1F1" height="2" style="stroke:#181818;stroke-width:0.5;" width="4" x="158.5" y="98"/><text fill="#000000" font-family="sans-serif" font-size="14" font-style="italic" lengthAdjust="spacing" textLength="47" x="108.5" y="121.5332">&#171;layer&#187;</text><text fill="#000000" font-family="sans-serif" font-size="14" lengthAdjust="spacing" textLength="42" x="111" y="139.1426">Assets</text></g><!--entity Postgres--><g id="elem_Postgres"><path d="M612.5,833 C612.5,823 662,823 662,823 C662,823 711.5,823 711.5,833 L711.5,859.6094 C711.5,869.6094 662,869.6094 662,869.6094 C662,869.6094 612.5,869.6094 612.5,859.6094 L612.5,833 " fill="#F1F1F1" style="stroke:#181818;stroke-width:0.5;"/><path d="M612.5,833 C612.5,843 662,843 662,843 C662,843 711.5,843 711.5,833 " fill="none" style="stroke:#181818;stroke-width:0.5;"/><text fill="#000000" font-family="sans-serif" font-size="14" lengthAdjust="spacing" textLength="79" x="622.5" y="861.5332">Postgres DB</text></g><!--entity FileStorage--><g id="elem_FileStorage"><rect fill="#F1F1F1" height="65.2188" rx="2.5" ry="2.5" style="stroke:#181818;stroke-width:0.5;" width="188" x="747" y="814"/><rect fill="#F1F1F1" height="10" style="stroke:#181818;stroke-width:0.5;" width="15" x="915" y="819"/><rect fill="#F1F1F1" height="2" style="stroke:#181818;stroke-width:0.5;" width="4" x="913" y="821"/><rect fill="#F1F1F1" height="2" style="stroke:#181818;stroke-width:0.5;" width="4" x="913" y="825"/><text fill="#000000" font-family="sans-serif" font-size="14" font-style="italic" lengthAdjust="spacing" textLength="50" x="811" y="848.5332">&#171;cloud&#187;</text><text fill="#000000" font-family="sans-serif" font-size="14" lengthAdjust="spacing" textLength="148" x="762" y="866.1426">File Storage (S3/MinIO)</text></g><!--entity MQ--><g id="elem_MQ"><rect fill="#F1F1F1" height="65.2188" rx="2.5" ry="2.5" style="stroke:#181818;stroke-width:0.5;" width="211" x="366.5" y="814"/><rect fill="#F1F1F1" height="10" style="stroke:#181818;stroke-width:0.5;" width="15" x="557.5" y="819"/><rect fill="#F1F1F1" height="2" style="stroke:#181818;stroke-width:0.5;" width="4" x="555.5" y="821"/><rect fill="#F1F1F1" height="2" style="stroke:#181818;stroke-width:0.5;" width="4" x="555.5" y="825"/><text fill="#000000" font-family="sans-serif" font-size="14" font-style="italic" lengthAdjust="spacing" textLength="50" x="442" y="848.5332">&#171;cloud&#187;</text><text fill="#000000" font-family="sans-serif" font-size="14" lengthAdjust="spacing" textLength="171" x="381.5" y="866.1426">Message Queue (opcional)</text></g><!--entity Payment--><g id="elem_Payment"><rect fill="#F1F1F1" height="65.2188" rx="2.5" ry="2.5" style="stroke:#181818;stroke-width:0.5;" width="191" x="991.5" y="814"/><rect fill="#F1F1F1" height="10" style="stroke:#181818;stroke-width:0.5;" width="15" x="1162.5" y="819"/><rect fill="#F1F1F1" height="2" style="stroke:#181818;stroke-width:0.5;" width="4" x="1160.5" y="821"/><rect fill="#F1F1F1" height="2" style="stroke:#181818;stroke-width:0.5;" width="4" x="1160.5" y="825"/><text fill="#000000" font-family="sans-serif" font-size="14" font-style="italic" lengthAdjust="spacing" textLength="66" x="1049" y="848.5332">&#171;external&#187;</text><text fill="#000000" font-family="sans-serif" font-size="14" lengthAdjust="spacing" textLength="151" x="1006.5" y="866.1426">Gateway de Pagamento</text></g><!--entity SMTP--><g id="elem_SMTP"><rect fill="#F1F1F1" height="65.2188" rx="2.5" ry="2.5" style="stroke:#181818;stroke-width:0.5;" width="175" x="1217.5" y="814"/><rect fill="#F1F1F1" height="10" style="stroke:#181818;stroke-width:0.5;" width="15" x="1372.5" y="819"/><rect fill="#F1F1F1" height="2" style="stroke:#181818;stroke-width:0.5;" width="4" x="1370.5" y="821"/><rect fill="#F1F1F1" height="2" style="stroke:#181818;stroke-width:0.5;" width="4" x="1370.5" y="825"/><text fill="#000000" font-family="sans-serif" font-size="14" font-style="italic" lengthAdjust="spacing" textLength="66" x="1267" y="848.5332">&#171;external&#187;</text><text fill="#000000" font-family="sans-serif" font-size="14" lengthAdjust="spacing" textLength="135" x="1232.5" y="866.1426">SMTP / Email Service</text></g><!--entity SMS--><g id="elem_SMS"><rect fill="#F1F1F1" height="65.2188" rx="2.5" ry="2.5" style="stroke:#181818;stroke-width:0.5;" width="228" x="1428" y="814"/><rect fill="#F1F1F1" height="10" style="stroke:#181818;stroke-width:0.5;" width="15" x="1636" y="819"/><rect fill="#F1F1F1" height="2" style="stroke:#181818;stroke-width:0.5;" width="4" x="1634" y="821"/><rect fill="#F1F1F1" height="2" style="stroke:#181818;stroke-width:0.5;" width="4" x="1634" y="825"/><text fill="#000000" font-family="sans-serif" font-size="14" font-style="italic" lengthAdjust="spacing" textLength="66" x="1504" y="848.5332">&#171;external&#187;</text><text fill="#000000" font-family="sans-serif" font-size="14" lengthAdjust="spacing" textLength="188" x="1443" y="866.1426">Servi&#231;o de Notifica&#231;&#245;es / SMS</text></g><!--link Controller to Service--><g id="link_Controller_Service"><path d="M118.84,571.18 C115.42,580.69 111.85,591.2 109,601 C104.45,616.63 101.6112,628.3919 98.4812,643.0719 " fill="none" id="Controller-to-Service" style="stroke:#181818;stroke-width:1.0;"/><polygon fill="#181818" points="97.23,648.94,103.0188,640.972,98.2726,644.0499,95.1947,639.3037,97.23,648.94" style="stroke:#181818;stroke-width:1.0;"/></g><!--link Service to Repository--><g id="link_Service_Repository"><path d="M94.51,714.31 C97.68,743.04 101.6713,779.1063 104.8413,807.8063 " fill="none" id="Service-to-Repository" style="stroke:#181818;stroke-width:1.0;"/><polygon fill="#181818" points="105.5,813.77,108.4878,804.3853,104.9511,808.8002,100.5361,805.2635,105.5,813.77" style="stroke:#181818;stroke-width:1.0;"/></g><!--link Repository to Domain--><g id="link_Repository_Domain"><path d="M111.27,879.3 C112.64,898.4 113.9439,916.6352 115.3039,935.7352 " fill="none" id="Repository-to-Domain" style="stroke:#181818;stroke-width:1.0;"/><polygon fill="#181818" points="115.73,941.72,119.0807,932.4586,115.3749,936.7326,111.1009,933.0268,115.73,941.72" style="stroke:#181818;stroke-width:1.0;"/></g><!--link Controller to Config--><g id="link_Controller_Config"><path d="M155.46,571.14 C173.41,594.36 194.02,621.0233 211.95,644.2133 " fill="none" id="Controller-to-Config" style="stroke:#181818;stroke-width:1.0;stroke-dasharray:7.0,7.0;"/><polygon fill="#181818" points="215.62,648.96,213.2794,639.3933,212.5616,645.0044,206.9505,644.2867,215.62,648.96" style="stroke:#181818;stroke-width:1.0;"/><text fill="#000000" font-family="sans-serif" font-size="13" lengthAdjust="spacing" textLength="149" x="193" y="615.4951">Autentica&#231;&#227;o/Autoriza&#231;&#227;o</text></g><!--link Views to Components--><g id="link_Views_Components"><path d="M234.8,152.11 C213.44,170.77 191.0097,190.3538 169.6497,209.0038 " fill="none" id="Views-to-Components" style="stroke:#181818;stroke-width:1.0;"/><polygon fill="#181818" points="165.13,212.95,174.5403,210.0438,168.8964,209.6615,169.2787,204.0176,165.13,212.95" style="stroke:#181818;stroke-width:1.0;"/></g><!--link Views to Stores--><g id="link_Views_Stores"><path d="M274.31,152.11 C276.27,170.77 278.1161,188.3325 280.0661,206.9825 " fill="none" id="Views-to-Stores" style="stroke:#181818;stroke-width:1.0;"/><polygon fill="#181818" points="280.69,212.95,283.7324,203.5828,280.17,207.9771,275.7758,204.4148,280.69,212.95" style="stroke:#181818;stroke-width:1.0;"/></g><!--link Components to APIS--><g id="link_Components_APIS"><path d="M129.51,278.11 C129.81,296.77 130.0935,314.3008 130.3935,332.9508 " fill="none" id="Components-to-APIS" style="stroke:#181818;stroke-width:1.0;"/><polygon fill="#181818" points="130.49,338.95,134.3447,329.8868,130.4096,333.9506,126.3458,330.0155,130.49,338.95" style="stroke:#181818;stroke-width:1.0;"/></g><!--link APIS to Controller--><g id="link_APIS_Controller"><path d="M131,404.31 C131,433.53 131,470.6 131,499.78 " fill="none" id="APIS-to-Controller" style="stroke:#181818;stroke-width:1.0;"/><polygon fill="#181818" points="131,505.78,135,496.78,131,500.78,127,496.78,131,505.78" style="stroke:#181818;stroke-width:1.0;"/><text fill="#000000" font-family="sans-serif" font-size="13" lengthAdjust="spacing" textLength="70" x="132" y="450.4951">HTTP/REST</text></g><!--link Service to Postgres--><g id="link_Service_Postgres"><path d="M134.59,706.96 C140.64,709.67 146.88,712.12 153,714 C342.28,772.15 419.87,677.6 595,770 C617.94,782.1 633.4028,800.4704 645.1928,818.0104 " fill="none" id="Service-to-Postgres" style="stroke:#181818;stroke-width:1.0;"/><polygon fill="#181818" points="648.54,822.99,646.839,813.2892,645.7507,818.8403,640.1995,817.7521,648.54,822.99" style="stroke:#181818;stroke-width:1.0;"/><text fill="#000000" font-family="sans-serif" font-size="13" lengthAdjust="spacing" textLength="33" x="575" y="758.4951">JDBC</text></g><!--link Service to FileStorage--><g id="link_Service_FileStorage"><path d="M134.83,707.47 C140.79,710.06 146.94,712.34 153,714 C401.07,781.94 493.17,667.33 729,770 C754.91,781.28 776.416,795.1023 797.036,810.3523 " fill="none" id="Service-to-FileStorage" style="stroke:#181818;stroke-width:1.0;"/><polygon fill="#181818" points="801.86,813.92,797.0024,805.3524,797.84,810.9469,792.2455,811.7844,801.86,813.92" style="stroke:#181818;stroke-width:1.0;"/><text fill="#000000" font-family="sans-serif" font-size="13" lengthAdjust="spacing" textLength="63" x="702" y="758.4951">SDK/HTTP</text></g><!--link Service to Payment--><g id="link_Service_Payment"><path d="M134.8,707.56 C140.77,710.14 146.93,712.39 153,714 C324.83,759.56 782.61,713.01 951,770 C982.34,780.6 1009.7113,795.2034 1035.0713,810.8234 " fill="none" id="Service-to-Payment" style="stroke:#181818;stroke-width:1.0;"/><polygon fill="#181818" points="1040.18,813.97,1034.6147,805.8443,1035.9227,811.3478,1030.4192,812.6559,1040.18,813.97" style="stroke:#181818;stroke-width:1.0;"/><text fill="#000000" font-family="sans-serif" font-size="13" lengthAdjust="spacing" textLength="111" x="918" y="758.4951">HTTPS (webhooks)</text></g><!--link Service to SMTP--><g id="link_Service_SMTP"><path d="M134.78,707.65 C140.75,710.21 146.92,712.43 153,714 C343.57,763.06 842.14,725.04 1038,744 C1110.58,751.03 1132.59,742.19 1200,770 C1225.32,780.45 1245.6975,794.3036 1264.9575,809.9036 " fill="none" id="Service-to-SMTP" style="stroke:#181818;stroke-width:1.0;"/><polygon fill="#181818" points="1269.62,813.68,1265.1439,804.907,1265.7346,810.533,1260.1087,811.1236,1269.62,813.68" style="stroke:#181818;stroke-width:1.0;"/><text fill="#000000" font-family="sans-serif" font-size="13" lengthAdjust="spacing" textLength="69" x="1178" y="758.4951">SMTP / API</text></g><!--link Service to SMS--><g id="link_Service_SMS"><path d="M134.77,707.69 C140.74,710.24 146.91,712.46 153,714 C390.66,774.34 1011.96,720.2 1256,744 C1325.09,750.74 1344.64,746.63 1410,770 C1440.2,780.8 1466.3946,795.1599 1490.9146,810.6199 " fill="none" id="Service-to-SMS" style="stroke:#181818;stroke-width:1.0;"/><polygon fill="#181818" points="1495.99,813.82,1490.5103,805.6363,1491.7605,811.1533,1486.2435,812.4035,1495.99,813.82" style="stroke:#181818;stroke-width:1.0;"/><text fill="#000000" font-family="sans-serif" font-size="13" lengthAdjust="spacing" textLength="97" x="1385" y="758.4951">Envio notifica&#231;&#227;o</text></g><!--SRC=[VLJDRjf04BxxAKQv50w1Gsy88K4WRLhHEZ7AfQhGOWPt6xDhxQv3QDIdwI5Ixtq2NgopVu2Tgf8FEpFVx7opyutr0nSLKsmB5SiVM86PsPS82dF3H55YaWG_N8ohakViy7Bu9Q6JSMrmos2DC9NM-GTrzmAUamJWc36X0uereIl5HG4JAGs1c8PLY3mJ7E3BbHH6oR94zTL6JoOCXoNRengDF313zSXpTAXmRaFki9AQ6wds3dKosy2ft38kbZDXkE6e7ThxsaZYi-75CiEyLjpi8qVoDP0_6yrVA-h2TNzVO- -xzerleZTqViznvqkxq-lAsqeA54Q7ej5yzJ3K8UfboWLd_dMSemqRfpVBy6x-Hd9ahq1QOoZeZ__fyaPi58C-fAWqIUBmM-ISkKwvY_Wsryom5TE4JwKsXIKsdJXKj7tbQqxQiypjtPtiRN_EnStdhgDYOp4q7EQbhDUHy1orjkxR6clAarNEfM2bpvlVDk1j-WOB5VGBioU3IZ3jcA4toZYfTypWZksjubDMi2rDGRe2ATjRWwh4bEDGvekKtcP6cYgX8LqR-0VUGWulqjRu90tV-7sprFgKauNSh9rAFT7t1gPOaRJy33JOdSjvnRY6JjYtRdAsMfUNeqWgYRjaVQUDISwMnqRyTfpVqUkDuYOCO5oJiatyH_J9b8h_y9QbTrtMJ_Au0OaNlBtt9EipfnTmSYPvwxLwJPneVUAHoG3UBnPf_swMBMoj-Ekn_pOlHTH6rQOc4yDifMxqVPJc03vC9rUDsBdu1f1DF_PjjMPwa84daa5dXwjlKZxeRWFcHZ-080tgf1NDA3WJZro2E2c0tkyl]--></g></svg>